<svg xmlns="http://www.w3.org/2000/svg" width="512" height="512"><path d="M343.746 151.285A246.396 246.396 0 0 1 351 158l2.484 2.293c22.316 21.241 37.345 53.835 38.64 84.672.905 38.073-8.233 74.57-35.095 102.895A1067.824 1067.824 0 0 1 353 352l-2.203 2.39c-20.713 21.94-53.692 36.472-83.762 37.735-38.073.904-74.57-8.234-102.895-35.096A1067.824 1067.824 0 0 1 160 353l-2.39-2.203c-21.94-20.713-36.472-53.692-37.735-83.762-.953-40.118 9.449-75.655 37.32-105.488C164.78 153.615 172.722 146.86 182 141l1.866-1.183c49.758-30.96 115.082-25.81 159.88 11.468Z" fill="#FECC6D"/><path d="M343 151c26.983 22.186 44.802 53.717 48.817 88.662 2.872 36.664-5.499 73.147-29.19 102.01-3.079 3.574-6.332 6.955-9.627 10.328l-2.203 2.39c-20.713 21.94-53.692 36.472-83.762 37.735-39.146.93-75.36-8.907-104.293-36.43-3.94-3.873-7.879-7.744-11.742-11.695l3-1c1.883 1.117 1.883 1.117 4.125 2.875 27.879 20.195 62.812 26.827 96.691 22.621 3.798-.66 7.461-1.5 11.184-2.496l3.996-.96c33.205-8.446 60.863-29.754 79.192-58.353 19.357-32.776 25.307-70.156 16-107.312C360.51 182.917 353.544 167.519 343 154v-3Z" fill="#FEC24F"/><path d="M208.016 160.234c3.44 1.328 4.982 2.667 6.984 5.766.635 3.13.77 5.895 0 9-2.477 3.618-5.287 6.217-8.75 8.875l-2.676 2.113a353.326 353.326 0 0 1-4.617 3.555c-15.043 12.065-23.101 30.804-28.852 48.7-1.078 2.688-1.825 4.022-4.105 5.757-3.606 1.202-6.21 1.327-10 1-3.372-2.098-5.92-4.111-7-8 .47-5.693 1.63-10.7 3.563-16.063l.797-2.219c7.583-20.372 20.847-37.955 37.64-51.718l2.473-2.086c4.833-3.78 8.327-6.046 14.543-4.68Z" fill="#FEFEFC"/><path d="M385 369c2.254 1.718 2.254 1.718 4.625 3.93l2.649 2.463a835.96 835.96 0 0 1 13.163 12.857l2.678 2.64 2.569 2.563 2.298 2.286c3.11 3.484 4.891 6.08 5.393 10.761-.406 3.785-1.001 5.553-3.375 8.5-2.814 2.267-4.741 2.956-8.313 3.563-9.159-1.398-16.073-10.607-22.38-16.94a791.32 791.32 0 0 0-4.903-4.857 2823.619 2823.619 0 0 1-3.142-3.141c-.485-.475-.97-.95-1.468-1.44-3.478-3.525-6.46-7.3-7.044-12.345.667-5.08 2.08-7.563 6.25-10.84 3.99-1.33 7.072-1.403 11 0ZM138 369c3.557 2.497 5.228 4.663 6.063 8.875.665 4.36-1.736 7.627-4.063 11.125-1.842 2.222-3.845 4.244-5.902 6.266l-1.696 1.697a816.76 816.76 0 0 1-3.537 3.509 897.496 897.496 0 0 0-5.379 5.364l-3.45 3.43c-.531.53-1.062 1.062-1.608 1.61-4.024 3.948-7.228 6.888-12.928 7.499-3.785-.406-5.553-1.001-8.5-3.375-2.267-2.814-2.956-4.741-3.563-8.313 1.398-9.159 10.607-16.073 16.94-22.38a791.32 791.32 0 0 0 4.857-4.903c1.046-1.048 2.093-2.096 3.141-3.142.475-.485.95-.97 1.44-1.468 5.489-5.415 10.694-8.276 18.185-5.794ZM410 94c4.146 1.79 6.21 3.854 8 8 .561 3.304.743 5.682-.946 8.677-4.628 6.163-9.982 11.589-15.431 17.016a791.32 791.32 0 0 0-4.857 4.903 2823.619 2823.619 0 0 1-3.141 3.142c-.475.485-.95.97-1.44 1.468-3.525 3.478-7.3 6.46-12.345 7.044-3.691-.485-5.658-1.122-8.777-3.313-2.499-3.558-3.735-6.575-3.063-10.937 2.673-5.254 5.716-9.152 9.902-13.266l1.696-1.697a816.76 816.76 0 0 1 3.537-3.509c1.803-1.778 3.591-3.57 5.379-5.364l3.45-3.43c.531-.53 1.062-1.062 1.608-1.61C398.826 95.97 402.459 93.192 410 94ZM109 94c7.164 4.039 12.933 10.594 18.693 16.377a791.32 791.32 0 0 0 4.903 4.857c1.048 1.046 2.096 2.093 3.142 3.141.485.475.97.95 1.468 1.44 3.478 3.525 6.46 7.3 7.044 12.345-.485 3.691-1.122 5.658-3.313 8.778-3.558 2.498-6.575 3.734-10.937 3.062-5.254-2.673-9.152-5.716-13.266-9.902l-1.697-1.696a816.76 816.76 0 0 1-3.509-3.537 897.496 897.496 0 0 0-5.364-5.379l-3.43-3.45c-.53-.531-1.062-1.062-1.61-1.608-3.948-4.024-6.888-7.228-7.499-12.928.406-3.785 1.001-5.553 3.375-8.5 3.937-3.171 7.017-3.76 12-3Z" fill="#FECE68"/><path d="m431.468 244.823 2.731-.039 2.946-.022 3.038-.025c2.122-.014 4.245-.024 6.367-.032 3.24-.017 6.478-.061 9.718-.105 2.063-.01 4.126-.019 6.189-.026l2.927-.053c5.848.019 9.159.588 13.616 4.479 1.857 3.715 1.585 7.956 1 12-2.19 2.824-3.83 4.415-7 6a69.205 69.205 0 0 1-4.37.161l-2.742.03-2.97.012-3.05.017c-2.132.01-4.265.016-6.398.02-3.259.01-6.517.04-9.777.072-2.07.007-4.142.012-6.213.016l-2.951.038c-8.646-.029-8.646-.029-12.529-3.366-2.021-3.57-3.02-6.008-2.938-10.125 1.096-3.36 2.482-5.347 4.938-7.875 2.8-.933 4.567-1.141 7.468-1.177ZM263 421c2.614 1.94 2.946 2.837 4 6 .106 1.487.158 2.978.177 4.468l.039 2.731.022 2.946.025 3.038c.014 2.122.024 4.245.032 6.367.017 3.24.061 6.478.105 9.718.01 2.063.019 4.126.026 6.189l.053 2.927c-.019 5.848-.588 9.159-4.479 13.616-3.715 1.857-7.956 1.585-12 1-2.824-2.19-4.415-3.83-6-7a69.205 69.205 0 0 1-.161-4.37l-.03-2.742-.012-2.97-.017-3.05c-.01-2.132-.016-4.265-.02-6.398-.01-3.259-.04-6.517-.072-9.777-.007-2.07-.012-4.142-.016-6.213l-.038-2.951c.029-8.62.029-8.62 3.366-12.529 5.753-3.497 8.947-3.22 15-1ZM43.37 244.839l2.742-.03 2.97-.012 3.05-.017c2.132-.01 4.265-.016 6.398-.02 3.259-.01 6.517-.04 9.777-.073 2.07-.006 4.142-.011 6.213-.015l2.951-.038c8.62.029 8.62.029 12.529 3.366 2.413 3.97 3.363 6.743 2.375 11.25-1.844 5.029-1.844 5.029-4.375 6.75-2.8.933-4.567 1.141-7.468 1.177l-2.731.039-2.946.022-3.038.025c-2.122.014-4.245.024-6.367.032-3.24.017-6.478.061-9.718.105-2.063.01-4.126.019-6.189.026l-2.927.053C40.768 267.46 37.457 266.89 33 263c-1.857-3.715-1.585-7.956-1-12 3.429-4.421 5.893-6.114 11.37-6.161ZM261 32c2.824 2.19 4.415 3.83 6 7 .105 1.454.149 2.913.161 4.37l.03 2.742.012 2.97.017 3.05c.01 2.132.016 4.265.02 6.398.01 3.259.04 6.517.072 9.777.007 2.07.012 4.142.016 6.213l.038 2.951c-.029 8.62-.029 8.62-3.366 12.529-3.97 2.413-6.743 3.363-11.25 2.375-5.029-1.844-5.029-1.844-6.75-4.375-.933-2.8-1.141-4.567-1.177-7.468l-.039-2.731-.022-2.946-.025-3.038c-.014-2.122-.024-4.245-.032-6.367-.017-3.24-.061-6.478-.105-9.718-.01-2.063-.019-4.126-.026-6.189l-.053-2.927c.019-5.848.588-9.159 4.479-13.616 3.715-1.857 7.956-1.585 12-1Z" fill="#FECC6C"/></svg>